<?xml version="1.0" encoding="utf-8"?>
<!-- Generator: Adobe Illustrator 22.1.0, SVG Export Plug-In . SVG Version: 6.00 Build 0)  -->
<svg version="1.1" id="Layer_1" xmlns="http://www.w3.org/2000/svg" xmlns:xlink="http://www.w3.org/1999/xlink" x="0px" y="0px"
	 viewBox="0 0 50 50" style="enable-background:new 0 0 50 50;" xml:space="preserve">
<style type="text/css">
	.st0{fill:#FFFFFF;}
</style>
<path class="st0" d="M25,2C12.3,2,2,12.3,2,25c0,12.1,9.4,22,21.3,22.9c0,0,0,0,0.1,0c0.6,0,1.1,0.1,1.7,0.1s1.1,0,1.7-0.1
	c0,0,0,0,0.1,0C38.6,47,48,37.1,48,25C48,12.3,37.7,2,25,2z M25,4c11.6,0,21,9.4,21,21c0,5.7-2.3,10.9-6,14.7
	c-1.6-1.2-3.6-1.8-5.3-2.5c-2.1-0.7-4.1-1.4-4.6-2.6c-0.1-1-0.1-1.8-0.1-2.8l0-0.4c0.9-0.8,2-2.6,2.4-4.3c0.7-0.4,1.5-1.2,1.7-3.2
	c0.1-1-0.2-1.8-0.6-2.3c0.5-1.9,1.6-6.6-0.3-9.6c-0.8-1.3-2-2.1-3.6-2.4C28.8,8.6,27.1,8,24.9,8c-3.4,0.1-5.9,1.1-7.4,3.1
	c-1.8,2.3-2.1,5.9-1,10.6c-0.4,0.5-0.7,1.3-0.6,2.3c0.2,2,1,2.9,1.7,3.2c0.4,1.6,1.5,3.4,2.4,4.3l0,0.4c0,0.9,0,1.7-0.1,2.8
	c-0.5,1.2-2.5,1.9-4.6,2.6c-1.7,0.6-3.7,1.3-5.3,2.5c-3.7-3.8-6-9-6-14.7C4,13.4,13.4,4,25,4z"/>
</svg>
