<svg xmlns="http://www.w3.org/2000/svg" xmlns:xlink="http://www.w3.org/1999/xlink" viewBox="0 0 146.5 49">
  <defs>
    <style>
      .cls-1 {
        fill: #bcc3ce;
      }

      .cls-2 {
        fill: #878c99;
      }

      .cls-3 {
        fill: #fff;
        font-size: 32px;
        font-family: Courgette-Regular, Courgette;
        letter-spacing: 0.025em;
      }

      .cls-4 {
        filter: url(#Hippo);
      }
    </style>
    <filter id="Hippo" x="49.5" y="0" width="97" height="49" filterUnits="userSpaceOnUse">
      <feOffset dy="3" input="SourceAlpha"/>
      <feGaussianBlur stdDeviation="1.5" result="blur"/>
      <feFlood flood-opacity="0.251"/>
      <feComposite operator="in" in2="blur"/>
      <feComposite in="SourceGraphic"/>
    </filter>
  </defs>
  <g id="hippo-2" data-name="hippo" transform="translate(-21 -17.429)">
    <g id="icons" transform="translate(21 18.929)">
      <path id="Path_12" data-name="Path 12" class="cls-1" d="M61,45.791h0a9.8,9.8,0,0,0-5.949-8.981,1.86,1.86,0,0,1-1.084-1.553A13.211,13.211,0,0,0,41,23,13.212,13.212,0,0,0,28.033,35.26a1.86,1.86,0,0,1-1.084,1.553A9.8,9.8,0,0,0,21,45.791h0a9.8,9.8,0,0,0,8,9.6,1.861,1.861,0,0,1,.5.172h23a1.861,1.861,0,0,1,.5-.172,9.8,9.8,0,0,0,8-9.6Z" transform="translate(-21 -21.106)"/>
      <path id="Path_13" data-name="Path 13" class="cls-2" d="M84.512,24.543a12.791,12.791,0,0,1-2.54,1.767A13.084,13.084,0,0,0,78,22.641a13.437,13.437,0,0,1,1.86-2.749,3.289,3.289,0,1,1,4.651,4.651Z" transform="translate(-51.488 -18.929)"/>
      <path id="Path_14" data-name="Path 14" class="cls-2" d="M41.4,22.641a13.084,13.084,0,0,0-3.935,3.647,12.791,12.791,0,0,1-2.577-1.744,3.289,3.289,0,0,1,4.651-4.651A13.437,13.437,0,0,1,41.4,22.641Z" transform="translate(-27.915 -18.929)"/>
      <path id="Path_15" data-name="Path 15" class="cls-2" d="M40.182,93.967a7.442,7.442,0,0,0,6.874,4.614H54.5a7.442,7.442,0,0,0,6.874-4.614,1.9,1.9,0,0,1,.9-.967h-23A1.9,1.9,0,0,1,40.182,93.967Z" transform="translate(-30.778 -58.548)"/>
      <ellipse id="Ellipse_1" data-name="Ellipse 1" cx="1.86" cy="1.86" rx="1.86" ry="1.86" transform="translate(23.256 9.335)"/>
      <ellipse id="Ellipse_2" data-name="Ellipse 2" cx="1.86" cy="1.86" rx="1.86" ry="1.86" transform="translate(13.023 9.335)"/>
      <path id="Path_16" data-name="Path 16" class="cls-2" d="M83.428,64.286c.5,1.149-.27,2.544-1.726,3.116a2.723,2.723,0,0,1-3.549-1.047c-.5-1.149.27-2.544,1.726-3.116A2.723,2.723,0,0,1,83.428,64.286Z" transform="translate(-51.489 -42.5)"/>
      <path id="Path_17" data-name="Path 17" class="cls-2" d="M38.154,64.286c-.5,1.149.27,2.544,1.726,3.116a2.723,2.723,0,0,0,3.549-1.047c.5-1.149-.27-2.544-1.726-3.116A2.723,2.723,0,0,0,38.154,64.286Z" transform="translate(-30.093 -42.5)"/>
    </g>
    <g class="cls-4" transform="matrix(1, 0, 0, 1, 21, 17.43)">
      <text id="Hippo-3" data-name="Hippo" class="cls-3" transform="translate(56 32.5)"><tspan x="0" y="0">Hippo</tspan></text>
    </g>
  </g>
</svg>
