<?xml version="1.0" encoding="utf-8"?>
<!-- Generator: Adobe Illustrator 22.1.0, SVG Export Plug-In . SVG Version: 6.00 Build 0)  -->
<svg version="1.1" id="Layer_1" xmlns="http://www.w3.org/2000/svg" xmlns:xlink="http://www.w3.org/1999/xlink" x="0px" y="0px"
	 viewBox="0 0 155 53" style="enable-background:new 0 0 155 53;" xml:space="preserve">
<style type="text/css">
	.st0{fill:#BCC3CE;}
	.st1{fill:#878C99;}
</style>
<title>Logo</title>
<g id="hippo-2">
	<g id="icons">
		<path id="Path_12" class="st0" d="M44,29.2L44,29.2c0-3.9-2.4-7.5-6-9c-0.6-0.3-1-0.9-1-1.5c-0.5-6.8-6.1-12.2-13-12.3
			c-6.9,0.1-12.5,5.4-13,12.3c0,0.7-0.4,1.3-1,1.6c-3.6,1.5-6,5.1-5.9,9H4c0,4.7,3.4,8.7,8,9.6c0.2,0,0.3,0.1,0.5,0.2h23
			c0.2-0.1,0.3-0.1,0.5-0.2C40.6,37.9,44,33.9,44,29.2z"/>
		<path id="Path_13" class="st1" d="M37,10.1c-0.8,0.7-1.6,1.3-2.5,1.8c-1.1-1.5-2.4-2.7-4-3.7c0.5-1,1.1-1.9,1.9-2.8
			c1.3-1.3,3.4-1.3,4.7-0.1C38.3,6.7,38.3,8.8,37,10.1L37,10.1L37,10.1z"/>
		<path id="Path_14" class="st1" d="M17.5,8.2c-1.6,0.9-2.9,2.2-3.9,3.6c-0.9-0.5-1.8-1.1-2.6-1.7c-1.2-1.3-1.2-3.4,0.2-4.7
			c1.3-1.2,3.2-1.2,4.5,0C16.4,6.3,17,7.2,17.5,8.2z"/>
		<path id="Path_15" class="st1" d="M13.4,39.9c1.1,2.8,3.9,4.6,6.9,4.6h7.4c3,0,5.7-1.8,6.9-4.6c0.2-0.4,0.5-0.8,0.9-1h-23
			C12.9,39.1,13.2,39.5,13.4,39.9z"/>
		<circle id="Ellipse_1" cx="29.1" cy="15.7" r="1.9"/>
		<circle id="Ellipse_2" cx="18.9" cy="15.7" r="1.9"/>
		<path id="Path_16" class="st1" d="M35.9,26.3c0.5,1.1-0.3,2.5-1.7,3.1c-1.3,0.6-2.8,0.2-3.5-1c-0.4-1.3,0.3-2.7,1.7-3.1
			c0,0,0,0,0.1,0C33.7,24.6,35.2,25.1,35.9,26.3z"/>
		<path id="Path_17" class="st1" d="M12.1,26.3c-0.5,1.1,0.3,2.5,1.7,3.1c1.3,0.6,2.8,0.2,3.5-1c0.4-1.3-0.3-2.7-1.7-3.1
			c0,0,0,0-0.1,0C14.3,24.6,12.8,25.1,12.1,26.3z"/>
	</g>
	<g id="Hippo-3">
		<g>
			<path d="M75.7,24c-1.3-0.1-2.5-0.2-3.8-0.2c-1.3,0-2.5,0.1-3.8,0.2c-1.7,4.6-3.4,7.9-5.3,9.9c-0.6,0.7-1.3,1.2-2.2,1.5
				c-0.2,0.1-0.4,0.1-0.6,0.1c-0.2,0-0.4,0-0.5-0.1c-0.1-0.1-0.3-0.1-0.4-0.3c-0.2-0.2-0.3-0.4-0.3-0.7c0-0.2,0.1-0.4,0.2-0.5
				c1.7-1.2,3.4-4.3,5.3-9.3l-0.2,0.1l-0.3,0.1c-0.1,0-0.3,0-0.4-0.1c-0.2-0.1-0.3-0.2-0.4-0.4c-0.3-0.4-0.3-0.6-0.1-0.8
				c0.6-0.4,1.3-0.8,2.1-0.9c1.4-4.3,2.1-7.4,2.2-9.2c-0.4,0-0.8,0.1-1.2,0.4l-1.2,0.7c-0.3,0.2-0.8,0-1.3-0.4s-0.8-0.9-0.7-1.2
				c0.1-0.6,0.9-1.1,2.5-1.5c0.4-0.1,0.9-0.2,1.3-0.2c0.3,0,0.6,0,1,0c0.3,0,0.6,0,0.9,0.1c0.8,0.1,1.6,0.6,1.9,1.4
				c0.1,0.3,0.2,0.7,0.2,1.1c0,0.5,0,1-0.1,1.5c-0.1,0.6-0.2,1.2-0.4,1.9c-0.3,1.6-0.8,3.2-1.3,4.9c2.3-0.3,4.7-0.4,7-0.4h0.7
				l0.9-2.6c0.8-2.1,1.3-4.3,1.8-6.5c0.1-0.9,0.6-1.3,1.3-1.3c0.4,0,0.8,0.1,1.2,0.4c0.5,0.3,0.9,0.9,0.9,1.5c0,0.6-0.1,1.1-0.3,1.7
				c-0.2,0.6-0.4,1.3-0.6,2.1c-0.2,0.8-0.5,1.6-0.9,2.5l-1,2.6h0.4l0.4,0c0.1,0,0.2,0,0.4,0.1c0.2,0.1,0.3,0.2,0.3,0.4
				c0,0.2-0.1,0.4-0.2,0.6c-0.1,0.2-0.3,0.4-0.5,0.6c-0.5,0.5-1.2,0.7-1.8,0.8c-1.3,3.3-2,5.4-2.2,6.1c-0.2,0.5-0.3,1-0.3,1.5
				c0,0.6,0.2,0.8,0.7,0.8c0.3,0,0.7-0.1,1-0.2l0.6-0.3c0.1,0,0.2-0.1,0.3-0.1c0.2,0,0.3,0.1,0.3,0.2c0,0,0,0.1,0,0.1
				c-0.1,1-0.7,1.9-1.6,2.3c-0.7,0.4-1.4,0.6-2.2,0.6c-1,0.1-1.9-0.5-2.2-1.4c-0.1-0.3-0.2-0.6-0.2-0.9c0-0.7,0.1-1.4,0.3-2.1
				c0.2-0.7,0.4-1.4,0.7-2.1L75.7,24z"/>
			<path d="M88.6,32.6c0.3,0,0.4,0.2,0.4,0.5c0,0.5-0.3,1.1-0.6,1.5c-0.6,0.7-1.5,1.1-2.5,1.1c-1.1,0.1-2.1-0.5-2.5-1.5
				c-0.2-0.4-0.3-0.8-0.2-1.2c0-0.6,0.1-1.1,0.3-1.6c0.2-0.6,0.4-1.2,0.6-1.9s0.5-1.3,0.8-2l0.8-2c0.4-0.9,0.8-1.9,0.9-2.9
				c0-0.3,0-0.6-0.2-0.9c-0.1-0.1-0.2-0.3-0.3-0.4L85.8,21c-0.1-0.1-0.2-0.2-0.2-0.4c0-0.2,0.1-0.4,0.2-0.5c0.2-0.2,0.3-0.3,0.6-0.4
				c0.5-0.2,1.1-0.3,1.6-0.3c1.5,0,2.3,0.4,2.3,1.2c0,1.1-0.3,2.2-0.7,3.2c-0.5,1.2-0.9,2.2-1.2,2.9l-0.9,2.1
				c-0.5,1.1-0.9,2.2-1,3.4c0,0.3,0.2,0.6,0.5,0.7c0.1,0,0.1,0,0.2,0c0.3,0,0.7,0,1-0.2C88.2,32.7,88.4,32.6,88.6,32.6z M91.8,15.7
				c-0.2,0.2-0.5,0.4-0.8,0.6c-0.3,0.1-0.6,0.2-0.9,0.3c-0.3,0-0.6,0-0.9-0.2c-0.3-0.1-0.5-0.3-0.7-0.6c-0.4-0.4-0.6-1-0.7-1.6
				c0-0.4,0.1-0.9,0.3-1.2c0.2-0.3,0.4-0.5,0.6-0.6c0.4-0.3,0.9-0.5,1.4-0.5c0.3,0,0.7,0,1,0.1c0.2,0.1,0.5,0.2,0.7,0.3
				c0.5,0.3,0.7,0.7,0.8,1.3c0,0.4-0.1,0.8-0.2,1.2C92.2,15.1,92,15.4,91.8,15.7z"/>
			<path d="M96.1,34c0,0.2-0.2,1-0.7,2.5s-0.8,2.7-1.1,3.5c-0.3,1.3-0.9,2.5-1.6,3.7c-0.3,0.4-0.8,0.6-1.2,0.6
				c-0.6,0-1.1-0.3-1.4-0.9c-0.1-0.2-0.1-0.4-0.1-0.6c0.1-0.5,0.2-0.9,0.5-1.3c1.4-3.3,2.5-6.7,3.3-10.2c0.6-2,0.9-3.4,1.1-4.1
				l0.5-2c0.2-0.9,0.4-1.7,0.6-2.6c0.1-0.3,0-0.7-0.1-1c-0.1-0.2-0.2-0.3-0.4-0.4c-0.2-0.1-0.3-0.2-0.4-0.3
				c-0.1-0.1-0.2-0.2-0.2-0.4c0-0.2,0.1-0.4,0.3-0.5c0.2-0.2,0.4-0.3,0.6-0.4c0.4-0.2,0.9-0.3,1.4-0.3c0.4,0,0.8,0,1.1,0.2
				c0.3,0.1,0.5,0.3,0.7,0.5c0.3,0.3,0.5,0.7,0.5,1.2c-0.1,0.8-0.2,1.5-0.3,2.1c1.8-2.6,3.7-3.9,5.7-3.9c1.7-0.1,3.2,1.1,3.6,2.8
				c0.2,0.8,0.3,1.6,0.3,2.4c0,0.9-0.1,1.9-0.4,2.8c-0.3,1-0.7,1.9-1.2,2.7c-0.5,0.8-1,1.6-1.7,2.3c-0.6,0.7-1.3,1.3-2,1.8
				c-1.2,1-2.7,1.6-4.2,1.6C97.8,35.7,96.7,35.1,96.1,34z M98.5,27.3c-0.4,0.7-0.7,1.4-0.9,2.2c-0.2,0.6-0.3,1.3-0.4,2
				c0,0.5,0.1,1,0.4,1.5c0.3,0.4,0.7,0.6,1.2,0.6c0.5,0,1.1-0.2,1.5-0.4c0.5-0.3,1-0.7,1.5-1.1c0.5-0.5,1-1,1.3-1.6
				c0.4-0.6,0.8-1.3,1.1-2c0.6-1.4,1-2.9,1-4.4c0-0.6-0.1-1.2-0.3-1.8c-0.1-0.4-0.5-0.6-0.9-0.6c-0.5,0-0.9,0.2-1.3,0.5
				c-0.5,0.4-1,0.8-1.4,1.3c-0.5,0.6-1,1.2-1.4,1.8C99.3,25.9,98.9,26.6,98.5,27.3L98.5,27.3z"/>
			<path d="M114.5,34c0,0.2-0.2,1-0.7,2.5s-0.8,2.7-1.1,3.5c-0.3,1.3-0.9,2.5-1.6,3.7c-0.3,0.4-0.8,0.6-1.2,0.6
				c-0.6,0-1.1-0.3-1.4-0.9c-0.1-0.2-0.1-0.4-0.1-0.6c0.1-0.5,0.2-0.9,0.5-1.3c1.3-3.3,2.4-6.7,3.3-10.2c0.6-2,0.9-3.4,1.1-4.1
				l0.5-2c0.3-1.3,0.5-2.2,0.6-2.6c0.1-0.3,0-0.7-0.1-1c-0.1-0.2-0.2-0.3-0.4-0.4l-0.4-0.3c-0.1-0.1-0.2-0.2-0.2-0.4
				c0-0.2,0.1-0.4,0.3-0.5c0.2-0.2,0.4-0.3,0.6-0.4c0.4-0.2,0.9-0.3,1.4-0.3c0.4,0,0.8,0,1.1,0.2c0.3,0.1,0.5,0.3,0.7,0.5
				c0.3,0.3,0.5,0.7,0.5,1.2c-0.1,0.8-0.2,1.5-0.3,2.1c1.8-2.6,3.7-3.9,5.7-3.9c1.7-0.1,3.2,1.1,3.6,2.8c0.2,0.8,0.3,1.6,0.3,2.4
				c0,0.9-0.1,1.9-0.4,2.8c-0.3,0.9-0.7,1.8-1.1,2.6c-0.9,1.6-2.2,3.1-3.7,4.2c-1.2,1-2.7,1.6-4.2,1.6
				C116.3,35.7,115.1,35.1,114.5,34z M116.9,27.3c-0.4,0.7-0.7,1.4-0.9,2.2c-0.2,0.6-0.3,1.3-0.3,2c0,0.5,0.1,1,0.3,1.5
				c0.3,0.4,0.7,0.6,1.2,0.6c0.5,0,1.1-0.2,1.5-0.4c0.5-0.3,1-0.7,1.5-1.1c0.5-0.5,0.9-1,1.3-1.6c0.4-0.6,0.8-1.3,1.1-2
				c0.6-1.4,1-2.9,1-4.4c0-0.6-0.1-1.2-0.3-1.8c-0.2-0.4-0.5-0.6-0.9-0.6c-0.5,0-0.9,0.2-1.3,0.5c-0.5,0.4-1,0.8-1.4,1.3
				c-0.5,0.6-1,1.2-1.5,1.8C117.7,25.9,117.3,26.6,116.9,27.3L116.9,27.3z"/>
			<path d="M131.6,34.4c-0.4-0.5-0.8-1-1-1.6c-0.3-0.7-0.4-1.5-0.4-2.3c0-0.9,0.1-1.8,0.3-2.7c0.4-1.8,1.3-3.5,2.4-4.9
				c0.6-0.7,1.2-1.4,1.9-1.9c1.3-1.1,3-1.7,4.7-1.8c1.9-0.1,3.7,1,4.4,2.8c0.6,1.6,0.6,3.3,0.1,4.9c-0.4,1.8-1.3,3.4-2.4,4.9
				c-1.1,1.4-2.5,2.5-4.1,3.2c-1.4,0.6-2.9,0.6-4.4,0.2C132.6,35.2,132,34.9,131.6,34.4z M134.6,26.9c-0.3,0.8-0.6,1.6-0.8,2.4
				c-0.2,0.8-0.3,1.5-0.2,2.3c0,0.6,0.1,1.2,0.3,1.7c0.2,0.4,0.6,0.6,1,0.6c0.5,0,1-0.2,1.4-0.5c0.5-0.4,1-0.8,1.4-1.3
				c0.5-0.6,0.9-1.2,1.3-1.9c0.4-0.7,0.7-1.4,1-2.2c0.6-1.4,0.9-2.9,0.9-4.5c0-1.1-0.2-1.9-0.7-2.2c-0.2-0.1-0.5-0.2-0.8-0.2
				c-0.4,0-0.8,0.2-1.2,0.5c-0.5,0.4-0.9,0.8-1.3,1.2c-0.5,0.6-0.9,1.2-1.3,1.8C135.3,25.4,134.9,26.1,134.6,26.9L134.6,26.9z"/>
		</g>
	</g>
</g>
</svg>
